<mxfile host="app.diagrams.net" agent="Mozilla/5.0 (Windows NT 10.0; Win64; x64) AppleWebKit/537.36 (KHTML, like Gecko) Chrome/130.0.0.0 Safari/537.36" version="24.8.4">
  <diagram name="Page-1" id="Nq79OPIuAvpEBc5BgXEF">
    <mxGraphModel dx="1050" dy="557" grid="1" gridSize="10" guides="1" tooltips="1" connect="1" arrows="1" fold="1" page="1" pageScale="1" pageWidth="827" pageHeight="1169" math="0" shadow="0">
      <root>
        <mxCell id="0" />
        <mxCell id="1" parent="0" />
        <mxCell id="UV0Utt9hDftBFTl4-RqP-2" value="Admin" style="rounded=0;whiteSpace=wrap;html=1;" vertex="1" parent="1">
          <mxGeometry x="50" y="190" width="120" height="60" as="geometry" />
        </mxCell>
        <mxCell id="UV0Utt9hDftBFTl4-RqP-3" value="Login page" style="rounded=0;whiteSpace=wrap;html=1;" vertex="1" parent="1">
          <mxGeometry x="220" y="190" width="120" height="60" as="geometry" />
        </mxCell>
        <mxCell id="UV0Utt9hDftBFTl4-RqP-4" value="forget password" style="rounded=0;whiteSpace=wrap;html=1;" vertex="1" parent="1">
          <mxGeometry x="380" y="190" width="120" height="60" as="geometry" />
        </mxCell>
        <mxCell id="UV0Utt9hDftBFTl4-RqP-5" value="verification" style="rounded=0;whiteSpace=wrap;html=1;" vertex="1" parent="1">
          <mxGeometry x="550" y="190" width="120" height="60" as="geometry" />
        </mxCell>
        <mxCell id="UV0Utt9hDftBFTl4-RqP-6" value="database" style="rounded=0;whiteSpace=wrap;html=1;" vertex="1" parent="1">
          <mxGeometry x="730" y="190" width="120" height="60" as="geometry" />
        </mxCell>
        <mxCell id="UV0Utt9hDftBFTl4-RqP-7" value="authentication page" style="rounded=0;whiteSpace=wrap;html=1;" vertex="1" parent="1">
          <mxGeometry x="900" y="190" width="120" height="60" as="geometry" />
        </mxCell>
        <mxCell id="UV0Utt9hDftBFTl4-RqP-9" value="" style="html=1;points=[[0,0,0,0,5],[0,1,0,0,-5],[1,0,0,0,5],[1,1,0,0,-5]];perimeter=orthogonalPerimeter;outlineConnect=0;targetShapes=umlLifeline;portConstraint=eastwest;newEdgeStyle={&quot;curved&quot;:0,&quot;rounded&quot;:0};" vertex="1" parent="1">
          <mxGeometry x="95" y="280" width="30" height="580" as="geometry" />
        </mxCell>
        <mxCell id="UV0Utt9hDftBFTl4-RqP-15" value="Login Request" style="html=1;verticalAlign=bottom;startArrow=oval;endArrow=block;startSize=8;curved=0;rounded=0;entryX=0;entryY=0;entryDx=0;entryDy=5;exitX=1;exitY=0;exitDx=0;exitDy=5;exitPerimeter=0;" edge="1" target="UV0Utt9hDftBFTl4-RqP-14" parent="1" source="UV0Utt9hDftBFTl4-RqP-9">
          <mxGeometry relative="1" as="geometry">
            <mxPoint x="200" y="285" as="sourcePoint" />
          </mxGeometry>
        </mxCell>
        <mxCell id="UV0Utt9hDftBFTl4-RqP-17" value="" style="html=1;points=[[0,0,0,0,5],[0,1,0,0,-5],[1,0,0,0,5],[1,1,0,0,-5]];perimeter=orthogonalPerimeter;outlineConnect=0;targetShapes=umlLifeline;portConstraint=eastwest;newEdgeStyle={&quot;curved&quot;:0,&quot;rounded&quot;:0};" vertex="1" parent="1">
          <mxGeometry x="430" y="280" width="10" height="40" as="geometry" />
        </mxCell>
        <mxCell id="UV0Utt9hDftBFTl4-RqP-18" value="Incorrect Password" style="html=1;verticalAlign=bottom;startArrow=oval;endArrow=block;startSize=8;curved=0;rounded=0;entryX=0;entryY=0;entryDx=0;entryDy=5;exitX=1;exitY=0;exitDx=0;exitDy=5;exitPerimeter=0;" edge="1" target="UV0Utt9hDftBFTl4-RqP-17" parent="1" source="UV0Utt9hDftBFTl4-RqP-14">
          <mxGeometry relative="1" as="geometry">
            <mxPoint x="360" y="285" as="sourcePoint" />
          </mxGeometry>
        </mxCell>
        <mxCell id="UV0Utt9hDftBFTl4-RqP-19" value="" style="html=1;points=[[0,0,0,0,5],[0,1,0,0,-5],[1,0,0,0,5],[1,1,0,0,-5]];perimeter=orthogonalPerimeter;outlineConnect=0;targetShapes=umlLifeline;portConstraint=eastwest;newEdgeStyle={&quot;curved&quot;:0,&quot;rounded&quot;:0};" vertex="1" parent="1">
          <mxGeometry x="590" y="360" width="10" height="80" as="geometry" />
        </mxCell>
        <mxCell id="UV0Utt9hDftBFTl4-RqP-20" value="Verify user" style="html=1;verticalAlign=bottom;startArrow=oval;endArrow=block;startSize=8;curved=0;rounded=0;entryX=0;entryY=0;entryDx=0;entryDy=5;" edge="1" target="UV0Utt9hDftBFTl4-RqP-19" parent="1">
          <mxGeometry relative="1" as="geometry">
            <mxPoint x="280" y="365" as="sourcePoint" />
          </mxGeometry>
        </mxCell>
        <mxCell id="UV0Utt9hDftBFTl4-RqP-22" value="" style="html=1;points=[[0,0,0,0,5],[0,1,0,0,-5],[1,0,0,0,5],[1,1,0,0,-5]];perimeter=orthogonalPerimeter;outlineConnect=0;targetShapes=umlLifeline;portConstraint=eastwest;newEdgeStyle={&quot;curved&quot;:0,&quot;rounded&quot;:0};" vertex="1" parent="1">
          <mxGeometry x="790" y="430" width="10" height="80" as="geometry" />
        </mxCell>
        <mxCell id="UV0Utt9hDftBFTl4-RqP-23" value="match in user database" style="html=1;verticalAlign=bottom;startArrow=oval;endArrow=block;startSize=8;curved=0;rounded=0;entryX=0;entryY=0;entryDx=0;entryDy=5;exitX=1;exitY=1;exitDx=0;exitDy=-5;exitPerimeter=0;" edge="1" target="UV0Utt9hDftBFTl4-RqP-22" parent="1" source="UV0Utt9hDftBFTl4-RqP-19">
          <mxGeometry relative="1" as="geometry">
            <mxPoint x="720" y="435" as="sourcePoint" />
          </mxGeometry>
        </mxCell>
        <mxCell id="UV0Utt9hDftBFTl4-RqP-26" value="" style="endArrow=none;dashed=1;html=1;rounded=0;entryX=0.437;entryY=0.997;entryDx=0;entryDy=0;entryPerimeter=0;" edge="1" parent="1" source="UV0Utt9hDftBFTl4-RqP-14" target="UV0Utt9hDftBFTl4-RqP-3">
          <mxGeometry width="50" height="50" relative="1" as="geometry">
            <mxPoint x="272" y="860.7999877929688" as="sourcePoint" />
            <mxPoint x="550" y="380" as="targetPoint" />
          </mxGeometry>
        </mxCell>
        <mxCell id="UV0Utt9hDftBFTl4-RqP-24" value="" style="html=1;points=[[0,0,0,0,5],[0,1,0,0,-5],[1,0,0,0,5],[1,1,0,0,-5]];perimeter=orthogonalPerimeter;outlineConnect=0;targetShapes=umlLifeline;portConstraint=eastwest;newEdgeStyle={&quot;curved&quot;:0,&quot;rounded&quot;:0};" vertex="1" parent="1">
          <mxGeometry x="960" y="505" width="10" height="80" as="geometry" />
        </mxCell>
        <mxCell id="UV0Utt9hDftBFTl4-RqP-25" value="Authorize the user" style="html=1;verticalAlign=bottom;startArrow=oval;endArrow=block;startSize=8;curved=0;rounded=0;entryX=0;entryY=0;entryDx=0;entryDy=5;" edge="1" target="UV0Utt9hDftBFTl4-RqP-24" parent="1" source="UV0Utt9hDftBFTl4-RqP-22">
          <mxGeometry relative="1" as="geometry">
            <mxPoint x="890" y="510" as="sourcePoint" />
          </mxGeometry>
        </mxCell>
        <mxCell id="UV0Utt9hDftBFTl4-RqP-27" value="" style="endArrow=none;dashed=1;html=1;rounded=0;entryX=0.437;entryY=0.997;entryDx=0;entryDy=0;entryPerimeter=0;" edge="1" parent="1" target="UV0Utt9hDftBFTl4-RqP-14">
          <mxGeometry width="50" height="50" relative="1" as="geometry">
            <mxPoint x="272" y="860.7999877929688" as="sourcePoint" />
            <mxPoint x="272" y="250" as="targetPoint" />
          </mxGeometry>
        </mxCell>
        <mxCell id="UV0Utt9hDftBFTl4-RqP-14" value="" style="html=1;points=[[0,0,0,0,5],[0,1,0,0,-5],[1,0,0,0,5],[1,1,0,0,-5]];perimeter=orthogonalPerimeter;outlineConnect=0;targetShapes=umlLifeline;portConstraint=eastwest;newEdgeStyle={&quot;curved&quot;:0,&quot;rounded&quot;:0};" vertex="1" parent="1">
          <mxGeometry x="270" y="280" width="10" height="90" as="geometry" />
        </mxCell>
        <mxCell id="UV0Utt9hDftBFTl4-RqP-28" value="" style="endArrow=none;dashed=1;html=1;rounded=0;entryX=0.5;entryY=1;entryDx=0;entryDy=0;" edge="1" parent="1">
          <mxGeometry width="50" height="50" relative="1" as="geometry">
            <mxPoint x="434.5" y="860" as="sourcePoint" />
            <mxPoint x="434.5" y="250" as="targetPoint" />
          </mxGeometry>
        </mxCell>
        <mxCell id="UV0Utt9hDftBFTl4-RqP-30" value="" style="endArrow=none;dashed=1;html=1;rounded=0;entryX=0.413;entryY=1.05;entryDx=0;entryDy=0;entryPerimeter=0;" edge="1" parent="1" target="UV0Utt9hDftBFTl4-RqP-5">
          <mxGeometry width="50" height="50" relative="1" as="geometry">
            <mxPoint x="600" y="862.4000244140625" as="sourcePoint" />
            <mxPoint x="550" y="430" as="targetPoint" />
          </mxGeometry>
        </mxCell>
        <mxCell id="UV0Utt9hDftBFTl4-RqP-32" value="" style="endArrow=none;dashed=1;html=1;rounded=0;entryX=0.5;entryY=1;entryDx=0;entryDy=0;" edge="1" parent="1" source="UV0Utt9hDftBFTl4-RqP-34">
          <mxGeometry width="50" height="50" relative="1" as="geometry">
            <mxPoint x="964.5" y="861.5999755859375" as="sourcePoint" />
            <mxPoint x="964.5" y="250" as="targetPoint" />
          </mxGeometry>
        </mxCell>
        <mxCell id="UV0Utt9hDftBFTl4-RqP-31" value="" style="endArrow=none;dashed=1;html=1;rounded=0;entryX=0.5;entryY=1;entryDx=0;entryDy=0;" edge="1" parent="1">
          <mxGeometry width="50" height="50" relative="1" as="geometry">
            <mxPoint x="794.5" y="860.7999877929688" as="sourcePoint" />
            <mxPoint x="794.5" y="250" as="targetPoint" />
          </mxGeometry>
        </mxCell>
        <mxCell id="UV0Utt9hDftBFTl4-RqP-35" value="Grant access to user" style="html=1;align=left;spacingLeft=2;endArrow=block;rounded=0;edgeStyle=orthogonalEdgeStyle;curved=0;rounded=0;" edge="1" target="UV0Utt9hDftBFTl4-RqP-34" parent="1">
          <mxGeometry relative="1" as="geometry">
            <mxPoint x="965" y="585" as="sourcePoint" />
            <Array as="points">
              <mxPoint x="965" y="580" />
              <mxPoint x="995" y="580" />
              <mxPoint x="995" y="738" />
            </Array>
          </mxGeometry>
        </mxCell>
        <mxCell id="UV0Utt9hDftBFTl4-RqP-36" value="allow access" style="html=1;verticalAlign=bottom;endArrow=block;curved=0;rounded=0;entryX=0;entryY=1;entryDx=0;entryDy=-5;entryPerimeter=0;" edge="1" parent="1" target="UV0Utt9hDftBFTl4-RqP-34">
          <mxGeometry width="80" relative="1" as="geometry">
            <mxPoint x="600" y="770" as="sourcePoint" />
            <mxPoint x="600" y="640" as="targetPoint" />
          </mxGeometry>
        </mxCell>
        <mxCell id="UV0Utt9hDftBFTl4-RqP-37" value="" style="endArrow=none;dashed=1;html=1;rounded=0;entryX=0.5;entryY=1;entryDx=0;entryDy=0;" edge="1" parent="1" target="UV0Utt9hDftBFTl4-RqP-34">
          <mxGeometry width="50" height="50" relative="1" as="geometry">
            <mxPoint x="964.5" y="861.5999755859375" as="sourcePoint" />
            <mxPoint x="964.5" y="250" as="targetPoint" />
          </mxGeometry>
        </mxCell>
        <mxCell id="UV0Utt9hDftBFTl4-RqP-34" value="" style="html=1;points=[[0,0,0,0,5],[0,1,0,0,-5],[1,0,0,0,5],[1,1,0,0,-5]];perimeter=orthogonalPerimeter;outlineConnect=0;targetShapes=umlLifeline;portConstraint=eastwest;newEdgeStyle={&quot;curved&quot;:0,&quot;rounded&quot;:0};" vertex="1" parent="1">
          <mxGeometry x="960" y="700" width="10" height="75" as="geometry" />
        </mxCell>
        <mxCell id="UV0Utt9hDftBFTl4-RqP-38" value="" style="html=1;points=[[0,0,0,0,5],[0,1,0,0,-5],[1,0,0,0,5],[1,1,0,0,-5]];perimeter=orthogonalPerimeter;outlineConnect=0;targetShapes=umlLifeline;portConstraint=eastwest;newEdgeStyle={&quot;curved&quot;:0,&quot;rounded&quot;:0};" vertex="1" parent="1">
          <mxGeometry x="790" y="590" width="10" height="60" as="geometry" />
        </mxCell>
        <mxCell id="UV0Utt9hDftBFTl4-RqP-39" value="create session and&lt;div&gt;store in database&lt;/div&gt;" style="html=1;align=left;spacingLeft=2;endArrow=block;rounded=0;edgeStyle=orthogonalEdgeStyle;curved=0;rounded=0;" edge="1" target="UV0Utt9hDftBFTl4-RqP-38" parent="1">
          <mxGeometry relative="1" as="geometry">
            <mxPoint x="795" y="550" as="sourcePoint" />
            <Array as="points">
              <mxPoint x="795" y="550" />
              <mxPoint x="825" y="550" />
              <mxPoint x="825" y="600" />
            </Array>
          </mxGeometry>
        </mxCell>
        <mxCell id="UV0Utt9hDftBFTl4-RqP-40" value="send email to reset password" style="html=1;verticalAlign=bottom;endArrow=block;curved=0;rounded=0;" edge="1" parent="1" source="UV0Utt9hDftBFTl4-RqP-38">
          <mxGeometry width="80" relative="1" as="geometry">
            <mxPoint x="780" y="640" as="sourcePoint" />
            <mxPoint x="440" y="640" as="targetPoint" />
          </mxGeometry>
        </mxCell>
        <mxCell id="UV0Utt9hDftBFTl4-RqP-41" value="destroy session and tokens" style="html=1;verticalAlign=bottom;endArrow=block;curved=0;rounded=0;" edge="1" parent="1">
          <mxGeometry width="80" relative="1" as="geometry">
            <mxPoint x="970" y="840" as="sourcePoint" />
            <mxPoint x="790" y="840" as="targetPoint" />
          </mxGeometry>
        </mxCell>
        <mxCell id="UV0Utt9hDftBFTl4-RqP-42" value="logged in successfully" style="html=1;verticalAlign=bottom;endArrow=block;curved=0;rounded=0;" edge="1" parent="1">
          <mxGeometry width="80" relative="1" as="geometry">
            <mxPoint x="270" y="840" as="sourcePoint" />
            <mxPoint x="130" y="840" as="targetPoint" />
          </mxGeometry>
        </mxCell>
      </root>
    </mxGraphModel>
  </diagram>
</mxfile>
